# AST/ASF file generated using VICON BodyLanguage
# -----------------------------------------------
:version 1.10
:name VICON
:units
  mass 1.0
  length 0.45
  angle deg
:documentation
   .ast/.asf automatically generated from VICON data using
   VICON BodyBuilder and BodyLanguage model FoxedUp or BRILLIANT.MOD
:root
   order TX TY TZ RX RY RZ
   axis XYZ
   position 0 0 0  
   orientation 0 0 0 
:bonedata
  begin
     id 1 
     name lhipjoint
     direction 0.662698 -0.695252 0.27831 
     length 2.53073 
     axis 0 0 0  XYZ
  end
  begin
     id 2 
     name lfemur
     direction 0.34202 -0.939693 0  
     length 7.16147  
     axis 0 0 20  XYZ
    dof rx ry rz
    limits (-160.0 20.0)
           (-70.0 70.0)
           (-60.0 70.0)
  end
  begin
     id 3 
     name ltibia
     direction 0.34202 -0.939693 0   
     length 7.63967   
     axis 0 0 20   XYZ
    dof rx
    limits (-10.0 170.0)
  end
  begin
     id 4 
     name lfoot
     direction 0.0938457 -0.257721 0.961651   
     length 1.89793   
     axis -90 7.62852e-016 20   XYZ
    dof rx rz
    limits (-45.0 90.0)
           (-70.0 20.0)
  end
  begin
     id 5 
     name ltoes
     direction -0.00116841 -0.0030592 0.999995   
     length 0.955649   
     axis -90 7.62852e-016 20   XYZ
    dof rx
    limits (-90.0 20.0)
  end
  begin
     id 6 
     name rhipjoint
     direction -0.649445 -0.705948 0.282592   
     length 2.49238  
     axis 0 0 0  XYZ 
  end
  begin
     id 7 
     name rfemur
     direction -0.34202 -0.939693 0   
     length 6.90728   
     axis 0 0 -20   XYZ
    dof rx ry rz
    limits (-160.0 20.0)
           (-70.0 70.0)
           (-70.0 60.0)
  end
  begin
     id 8 
     name rtibia
     direction -0.34202 -0.939693 0   
     length 7.72868   
     axis 0 0 -20   XYZ
    dof rx
    limits (-10.0 170.0)
 end
 begin
     id 9 
     name rfoot
     direction -0.0920068 -0.252865 0.963117   
     length 1.97476  
     axis -90 -7.62852e-016 -20   XYZ
    dof rx rz
    limits (-45.0 90.0)
           (-20.0 70.0)
  end
  begin
     id 10 
     name rtoes
     direction 0.000391322 0.00230649 0.999997   
     length 0.992641   
     axis -90 -7.62852e-016 -20   XYZ
    dof rx
    limits (-90.0 20.0)
  end
  begin
     id 11 
     name lowerback
     direction -0.00875327 0.998321 -0.0572635   
     length 2.20024   
     axis 0 0 0   XYZ
    dof rx ry rz
    limits (-20.0 45.0)
           (-30.0 30.0)
           (-30.0 30.0)
  end
  begin
     id 12 
     name upperback
     direction 0.00753931 0.999972 -0.000360425   
     length 2.20538   
     axis 0 0 0   XYZ
    dof rx ry rz
    limits (-20.0 45.0)
           (-30.0 30.0)
           (-30.0 30.0)
  end
  begin
     id 13 
     name thorax
     direction 0.0117767 0.999601 0.0256663   
     length 2.21508   
     axis 0 0 0   XYZ
    dof rx ry rz
    limits (-20.0 45.0)
           (-30.0 30.0)
           (-30.0 30.0)
  end
  begin
     id 14 
     name lowerneck
     direction 0.060228 0.994909 0.0807986   
     length 1.7607   
     axis 0 0 0   XYZ
    dof rx ry rz
    limits (-20.0 45.0)
           (-30.0 30.0)
           (-30.0 30.0)
  end
  begin
     id 15 
     name upperneck
     direction -0.0563647 0.959594 -0.275685   
     length 1.75612   
     axis 0 0 0   XYZ
    dof rx ry rz
    limits (-20.0 45.0)
           (-30.0 30.0)
           (-30.0 30.0)
  end
  begin
     id 16
     name head
     direction -0.0161544 0.99458 -0.102714  
     length 1.79288  
     axis 0 0 0   XYZ
    dof rx ry rz
    limits (-20.0 45.0)
           (-30.0 30.0)
           (-30.0 30.0)
  end
  begin
     id 17 
     name lclavicle
     direction 0.93913 0.332189 -0.087669  
     length 3.52087  
     axis 0 0 0   XYZ
    dof ry rz
    limits (-20.0 10.0)
           (0.0 20.0)
  end
  begin
     id 18 
     name lhumerus
     direction 1 -4.48974e-011 -2.70836e-027   
     length 5.35289   
     axis -180 -30 -90   XYZ
    dof rx ry rz
    limits (-60.0 90.0)
           (-90.0 90.0)
           (-90.0 90.0)
  end
  begin
     id 19
     name lradius
     direction 1 -4.48961e-011 -9.76021e-027   
     length 3.27727   
     axis -180 -30 -90   XYZ
    dof rx
    limits (-10.0 170.0)
  end
  begin
     id 20
     name lwrist
     direction 1 -4.49103e-011 -2.23668e-026   
     length 1.63864   
     axis 1.44924e-014 90 90   XYZ
    dof ry
    limits (-180.0 0.0)
 end
  begin
     id 21 
     name lhand
     direction 1 3.0697e-005 0.000161777   
     length 0.54443   
     axis 2.85318e-014 90 90   XYZ
    dof rx rz
    limits (-90.0 90.0)
           (-45.0 45.0)
  end
  begin
     id 22 
     name lfingers
     direction 1 -4.49027e-011 -8.9447e-026   
     length 0.438912   
     axis 5.70628e-014 90 90   XYZ
    dof rx
    limits (0.0 90.0)
  end
  begin
     id 23
     name lthumb
     direction 0.707058 2.6516e-005 0.707156   
     length 0.630274   
     axis -90 45 -3.53137e-014   XYZ
    dof rx rz
    limits (-45.0 45.0)
           (-45.0 45.0)
  end
  begin
     id 24 
     name rclavicle
     direction -0.95274 0.284984 -0.105215   
     length 3.43401  
     axis 0 0 0   XYZ 
    dof ry rz
    limits (-10.0 20.0)
           (-20.0 0.0)
  end
  begin
     id 25 
     name rhumerus
     direction -0.999999 -0.000575019 -0.00106829  
     length 5.52077   
     axis -180 30 90   XYZ
    dof rx ry rz
    limits (-90.0 60.0)
           (-90.0 90.0)
           (-90.0 90.0)
  end
  begin
     id 26 
     name rradius
     direction -1 -4.4879e-011 -6.35415e-027   
     length 3.32364   
     axis -180 30 90   XYZ
    dof rx
    limits (-10.0 170.0)
  end
  begin
     id 27 
     name rwrist
     direction -1 -4.49048e-011 -9.98542e-027   
     length 1.66182   
     axis 6.32482e-015 -90 -90   XYZ
    dof ry
    limits (-180.0 0.0)
  end
  begin
     id 28
     name rhand
     direction -1 -4.48978e-011 -1.99771e-026   
     length 0.732235   
     axis 1.27479e-014 -90 -90   XYZ
    dof rx rz
    limits (-90.0 90.0)
           (-45.0 45.0)
  end
  begin
     id 29
     name rfingers
     direction -1 -4.49144e-011 -3.99245e-026   
     length 0.590347   
     axis 2.5496e-014 -90 -90   XYZ
    dof rx
    limits (0.0 90.0)
  end
  begin
     id 30
     name rthumb
     direction -0.707107 -6.35121e-011 0.707107   
     length 0.847624   
     axis -90 -45 -2.82974e-014   XYZ
    dof rx rz
    limits (-45.0 45.0)
           (-45.0 45.0)
  end
:hierarchy
  begin
    root lhipjoint rhipjoint lowerback
    lhipjoint lfemur
    lfemur ltibia
    ltibia lfoot
    lfoot ltoes
    rhipjoint rfemur
    rfemur rtibia
    rtibia rfoot
    rfoot rtoes
    lowerback upperback
    upperback thorax
    thorax lowerneck lclavicle rclavicle
    lowerneck upperneck
    upperneck head
    lclavicle lhumerus
    lhumerus lradius
    lradius lwrist
    lwrist lhand lthumb
    lhand lfingers
    rclavicle rhumerus
    rhumerus rradius
    rradius rwrist
    rwrist rhand rthumb
    rhand rfingers
  end

#!OML:ASF G:\Work\Work\Patient Classification 1\Elijah\terrain1\Elijah.ASF
:FULLY-SPECIFIED
:DEGREES
402
root 14.2385 21.6959 27.1858 5.10709 2.22114 1.1845
lowerback 4.74578 0.0981147 -2.39218
upperback 0.612409 0.0134822 0.282227
thorax -2.03151 0.0260751 1.63155
lowerneck -8.76704 17.3694 13.8495
upperneck 31.8653 28.7757 -15.1544
head 17.8593 12.2871 -2.85932
rclavicle 8.97016e-015 -1.46107e-014
rhumerus -41.8268 -18.5598 -73.2168
rradius 21.5626
rwrist 8.73488
rhand -10.6031 20.4756
rfingers 7.12502
rthumb 15.4028 -8.93063
lclavicle 8.97016e-015 -1.46107e-014
lhumerus -31.7189 6.17337 79.7864
lradius 45.5786
lwrist 4.24827
lhand -13.3919 23.3921
lfingers 7.12502
lthumb 12.7154 52.985
rfemur -25.481 -6.6176 21.3868
rtibia 45.5379
rfoot 0.448669 -7.03757
rtoes -14.2078
lfemur -10.9606 2.09446 -23.9525
ltibia 38.1339
lfoot -13.5023 -9.44683
ltoes -6.87552
403
root 14.2574 21.6408 27.3393 4.98283 3.36563 1.25883
lowerback 3.7033 -0.166797 -1.7995
upperback 1.2565 -0.284519 0.149156
thorax -0.777254 -0.143661 1.17411
lowerneck -9.38644 17.2816 13.784
upperneck 31.6762 28.6472 -15.4092
head 17.9308 12.1609 -2.92976
rclavicle -4.41053e-015 -6.16232e-015
rhumerus -41.1942 -19.1641 -73.107
rradius 21.1876
rwrist 9.11844
rhand -10.5592 20.3228
rfingers 7.12502
rthumb 15.4451 -9.08012
lclavicle -4.41053e-015 -6.16232e-015
lhumerus -30.8567 5.55544 80.1374
lradius 46.1878
lwrist 4.78545
lhand -14.0979 22.2871
lfingers 7.12502
lthumb 12.0347 51.9211
rfemur -24.5484 -7.93232 21.0691
rtibia 42.9954
rfoot 0.826075 -6.17425
rtoes -14.375
lfemur -10.4522 1.89438 -23.9865
ltibia 39.2028
lfoot -14.1662 -9.92338
ltoes -8.54743
404
root 14.2465 21.6054 27.4167 4.92131 3.90742 1.74881
lowerback 4.75181 -0.117801 -2.04543
upperback 0.810807 -0.25989 -0.00571019
thorax -1.82123 -0.117344 1.15782
lowerneck -9.2892 17.0528 13.7719
upperneck 32.0842 28.3313 -15.1774
head 18.0014 12.0513 -2.94115
rclavicle -9.46712e-015 1.58034e-014
rhumerus -41.9978 -19.1805 -72.5818
rradius 20.9934
rwrist 9.17158
rhand -10.5656 20.5339
rfingers 7.12502
rthumb 15.4389 -8.8695
lclavicle -9.46712e-015 1.58034e-014
lhumerus -31.3981 4.6639 80.4014
lradius 47.3015
lwrist 4.10624
lhand -12.2707 25.2121
lfingers 7.12502
lthumb 13.7961 54.7346
rfemur -24.088 -7.82725 20.4674
rtibia 40.4625
rfoot 1.79899 -6.20102
rtoes -14.1118
lfemur -11.0308 1.89639 -24.4068
ltibia 40.6525
lfoot -14.0049 -10.0866
ltoes -9.56328
405
root 14.2681 21.5679 27.5653 4.86576 4.9329 1.77624
lowerback 3.77361 -0.375201 -1.50811
upperback 0.720336 -0.560955 -0.112808
thorax -1.36263 -0.273986 0.757258
lowerneck -7.15415 16.7023 14.8172
upperneck 31.3994 27.9626 -16.0667
head 17.4824 12.1403 -3.74127
rclavicle -8.57259e-016 3.27995e-015
rhumerus -42.9402 -18.8888 -72.2295
rradius 20.988
rwrist 9.3776
rhand -10.5303 20.8535
rfingers 7.12502
rthumb 15.4729 -8.54725
lclavicle -8.57259e-016 3.27995e-015
lhumerus -32.163 4.00436 80.4517
lradius 48.123
lwrist 4.00422
lhand -11.7546 26.1369
lfingers 7.12502
lthumb 14.2935 55.6249
rfemur -23.1395 -9.1531 20.196
rtibia 37.9616
rfoot 2.43591 -5.13184
rtoes -14.7715
lfemur -11.0353 1.538 -24.4257
ltibia 42.0031
lfoot -13.9974 -10.5947
ltoes -7.91347
406
root 14.2367 21.5077 27.6116 5.014 5.35348 1.7705
lowerback 4.54539 -0.312492 -1.62917
upperback 0.600649 -0.495408 0.0340766
thorax -1.9166 -0.235116 0.979102
lowerneck -8.05003 16.5839 13.8706
upperneck 31.7997 27.6727 -15.3524
head 17.4682 11.9076 -3.3286
rclavicle -1.36664e-015 9.74045e-015
rhumerus -42.9764 -18.9403 -71.8582
rradius 21.0245
rwrist 9.65802
rhand -10.4696 20.7492
rfingers 7.12502
rthumb 15.5314 -8.64701
lclavicle -1.36664e-015 9.74045e-015
lhumerus -31.8951 3.57999 80.8956
lradius 48.7923
lwrist 4.00711
lhand -11.9025 25.6411
lfingers 7.12502
lthumb 14.1509 55.1392
rfemur -23.1555 -8.11053 20.2529
rtibia 35.5276
rfoot 3.57115 -5.96503
rtoes -14.4036
lfemur -11.9685 1.59071 -24.1406
ltibia 43.5183
lfoot -13.5474 -11.0977
ltoes -7.48977
407
root 14.2045 21.4428 27.6675 5.16117 5.66002 1.9601
lowerback 5.5753 -0.207687 -1.94513
upperback 0.126123 -0.39975 0.0384868
thorax -2.98287 -0.170952 1.16365
lowerneck -8.04228 16.4714 14.0268
upperneck 32.2142 27.53 -15.1859
head 17.6516 11.8698 -3.32799
rclavicle 1.75924e-014 1.31198e-014
rhumerus -43.7123 -18.9156 -71.3814
rradius 20.9612
rwrist 9.97353
rhand -10.4361 20.6603
rfingers 7.12502
rthumb 15.5636 -8.73344
lclavicle 1.75924e-014 1.31198e-014
lhumerus -32.2448 2.93905 81.1536
lradius 49.5453
lwrist 4.07752
lhand -11.9133 25.5075
lfingers 7.12502
lthumb 14.1405 55.0063
rfemur -23.0821 -7.0929 20.0433
rtibia 33.046
rfoot 4.8995 -6.72874
rtoes -14.3229
lfemur -12.8014 1.73445 -24.0586
ltibia 45.0473
lfoot -13.2834 -11.533
ltoes -8.04275
408
root 14.2265 21.3905 27.8465 5.08116 6.50132 2.61923
lowerback 4.61766 -0.132164 -1.82734
upperback 0.511237 -0.273857 -0.260915
thorax -2.05586 -0.122262 0.774359
lowerneck -8.49453 16.2066 13.6659
upperneck 32.4075 27.0809 -14.9013
head 17.6211 11.6421 -3.24856
rclavicle -5.04416e-015 -1.78906e-015
rhumerus -43.9042 -19.6071 -70.7717
rradius 20.7676
rwrist 10.1981
rhand -10.3735 20.6777
rfingers 7.12502
rthumb 15.624 -8.71131
lclavicle -5.04416e-015 -1.78906e-015
lhumerus -31.8327 1.96293 81.7073
lradius 50.145
lwrist 4.19932
lhand -11.7818 25.4855
lfingers 7.12502
lthumb 14.2673 54.9754
rfemur -21.9975 -8.70804 19.0968
rtibia 30.7443
rfoot 5.81838 -5.39668
rtoes -15.0359
lfemur -12.3942 1.38736 -24.7316
ltibia 46.3185
lfoot -13.7018 -11.9552
ltoes -8.02986
